<svg width="95" height="137" viewBox="0 0 95 137" fill="none" xmlns="http://www.w3.org/2000/svg">
<path d="M12.036 115.652C12.988 115.652 13.872 115.833 14.688 116.196C15.5267 116.559 16.2407 117.069 16.83 117.726C17.442 118.361 17.9067 119.131 18.224 120.038C18.564 120.922 18.734 121.897 18.734 122.962C18.734 123.959 18.5753 124.889 18.258 125.75C17.9633 126.611 17.5327 127.359 16.966 127.994C16.3993 128.606 15.7307 129.093 14.96 129.456C14.1893 129.819 13.328 130 12.376 130H1.836V125.716H11.152C11.6053 125.716 12.036 125.659 12.444 125.546C12.8747 125.433 13.2373 125.263 13.532 125.036C13.8267 124.809 14.0647 124.526 14.246 124.186C14.4273 123.846 14.518 123.438 14.518 122.962C14.518 122.078 14.2233 121.387 13.634 120.888C13.0673 120.389 12.3533 120.14 11.492 120.14H8.738C7.582 120.14 6.528 120.015 5.576 119.766C4.624 119.517 3.81933 119.12 3.162 118.576C2.50467 118.032 1.99467 117.329 1.632 116.468C1.26933 115.607 1.088 114.575 1.088 113.374C1.088 112.535 1.23533 111.719 1.53 110.926C1.82467 110.133 2.23267 109.441 2.754 108.852C3.27533 108.24 3.91 107.753 4.658 107.39C5.406 107.027 6.23333 106.846 7.14 106.846H16.694V111.368H8.908C8.45467 111.368 8.03533 111.402 7.65 111.47C7.26467 111.515 6.92467 111.617 6.63 111.776C6.33533 111.912 6.10867 112.127 5.95 112.422C5.79133 112.717 5.712 113.113 5.712 113.612C5.712 114.179 5.90467 114.666 6.29 115.074C6.67533 115.459 7.19667 115.652 7.854 115.652H12.036ZM29.3083 116.57C28.7189 116.57 28.2316 116.649 27.8463 116.808C27.4836 116.944 27.2003 117.137 26.9963 117.386C26.7923 117.635 26.6449 117.941 26.5543 118.304C26.4863 118.644 26.4523 119.018 26.4523 119.426V130H22.6443V106.846H26.4523V113.068C26.7923 112.955 27.1436 112.864 27.5063 112.796C27.8916 112.728 28.2996 112.694 28.7303 112.694H30.7703C31.7676 112.694 32.6403 112.864 33.3883 113.204C34.1589 113.544 34.7936 113.997 35.2923 114.564C35.8136 115.108 36.1989 115.743 36.4483 116.468C36.6976 117.171 36.8223 117.885 36.8223 118.61V130H32.9803V119.426C32.9803 119.018 32.9463 118.644 32.8783 118.304C32.8103 117.941 32.6629 117.635 32.4363 117.386C32.2323 117.137 31.9489 116.944 31.5863 116.808C31.2236 116.649 30.7476 116.57 30.1583 116.57H29.3083ZM48.081 112.694C49.0784 112.694 49.9624 112.853 50.733 113.17C51.5264 113.465 52.195 113.884 52.739 114.428C53.3057 114.972 53.7364 115.629 54.031 116.4C54.3257 117.171 54.473 118.043 54.473 119.018V123.676C54.473 124.628 54.3257 125.501 54.031 126.294C53.7364 127.065 53.3057 127.733 52.739 128.3C52.195 128.844 51.5264 129.263 50.733 129.558C49.9624 129.853 49.0784 130 48.081 130H46.687C45.7124 130 44.8284 129.853 44.035 129.558C43.2417 129.263 42.5617 128.844 41.995 128.3C41.451 127.733 41.0317 127.065 40.737 126.294C40.465 125.501 40.329 124.628 40.329 123.676V119.018C40.329 118.043 40.465 117.171 40.737 116.4C41.0317 115.629 41.451 114.972 41.995 114.428C42.5617 113.884 43.2417 113.465 44.035 113.17C44.8284 112.853 45.7124 112.694 46.687 112.694H48.081ZM46.687 116.604C45.9844 116.604 45.3837 116.842 44.885 117.318C44.409 117.771 44.171 118.372 44.171 119.12V123.54C44.171 124.288 44.409 124.9 44.885 125.376C45.3837 125.852 45.9844 126.09 46.687 126.09H48.081C48.8064 126.09 49.3957 125.852 49.849 125.376C50.325 124.9 50.563 124.288 50.563 123.54V119.12C50.563 118.372 50.325 117.771 49.849 117.318C49.3957 116.842 48.8064 116.604 48.081 116.604H46.687ZM65.781 112.694C66.7783 112.694 67.6623 112.853 68.433 113.17C69.2263 113.465 69.895 113.884 70.439 114.428C71.0056 114.972 71.4363 115.629 71.731 116.4C72.0256 117.171 72.173 118.043 72.173 119.018V123.676C72.173 124.628 72.0256 125.501 71.731 126.294C71.4363 127.065 71.0056 127.733 70.439 128.3C69.895 128.844 69.2263 129.263 68.433 129.558C67.6623 129.853 66.7783 130 65.781 130H64.693C63.6956 130 62.789 129.841 61.973 129.524V135.916H58.029V112.694H65.781ZM61.973 116.604V123.54C61.973 124.288 62.1996 124.9 62.653 125.376C63.1063 125.852 63.6956 126.09 64.421 126.09H65.781C66.5063 126.09 67.107 125.852 67.583 125.376C68.059 124.9 68.297 124.288 68.297 123.54V119.12C68.297 118.372 68.059 117.771 67.583 117.318C67.107 116.842 66.5063 116.604 65.781 116.604H61.973ZM79.9773 130H75.9653V112.694H79.9773V130ZM79.9773 110.824H75.9653V106.846H79.9773V110.824ZM83.4472 112.694H86.6432V106.846H90.6552V112.694H93.8512V116.604H90.6552V130H86.6432V116.604H83.4472V112.694Z" fill="#EE3168"/>
<path fill-rule="evenodd" clip-rule="evenodd" d="M13.6601 36.6624C16.0593 27.9984 23.9446 22 32.9347 22H62.5062C71.4962 22 79.3815 27.9984 81.7808 36.6624L88.7039 61.6624C92.232 74.4028 82.6491 87 69.4293 87H26.0116C12.7917 87 3.20889 74.4028 6.73699 61.6624L13.6601 36.6624ZM40.7204 36C40.7204 37.6569 39.3773 39 37.7204 39C36.0636 39 34.7204 37.6569 34.7204 36C34.7204 34.3431 36.0636 33 37.7204 33C39.3773 33 40.7204 34.3431 40.7204 36ZM54.7204 39C56.3773 39 57.7204 37.6569 57.7204 36C57.7204 34.3431 56.3773 33 54.7204 33C53.0636 33 51.7204 34.3431 51.7204 36C51.7204 37.6569 53.0636 39 54.7204 39Z" fill="url(#paint0_linear)"/>
<path fill-rule="evenodd" clip-rule="evenodd" d="M63.7204 34.5V18.5C63.7204 9.3873 56.3331 2 47.2204 2C38.1077 2 30.7204 9.3873 30.7204 18.5V34.5C30.7204 43.6127 38.1077 51 47.2204 51C56.3331 51 63.7204 43.6127 63.7204 34.5ZM47.2204 0C37.0032 0 28.7204 8.28273 28.7204 18.5V34.5C28.7204 44.7173 37.0032 53 47.2204 53C57.4377 53 65.7204 44.7173 65.7204 34.5V18.5C65.7204 8.28273 57.4377 0 47.2204 0Z" fill="url(#paint1_linear)"/>
<defs>
<linearGradient id="paint0_linear" x1="47.7204" y1="22" x2="47.7204" y2="87" gradientUnits="userSpaceOnUse">
<stop stop-color="#EE3168"/>
<stop offset="1" stop-color="#C1236F"/>
</linearGradient>
<linearGradient id="paint1_linear" x1="47.2204" y1="0" x2="47.2204" y2="53" gradientUnits="userSpaceOnUse">
<stop stop-color="#C1236F"/>
<stop offset="1" stop-color="#EE3168"/>
</linearGradient>
</defs>
</svg>
