<svg xmlns="http://www.w3.org/2000/svg" width="95" height="137" fill="none" viewBox="0 0 95 137">
    <path fill="#EE3168" d="M12.036 115.652c.952 0 1.836.181 2.652.544.839.363 1.553.873 2.142 1.53.612.635 1.077 1.405 1.394 2.312.34.884.51 1.859.51 2.924 0 .997-.159 1.927-.476 2.788-.295.861-.725 1.609-1.292 2.244-.567.612-1.235 1.099-2.006 1.462-.77.363-1.632.544-2.584.544H1.836v-4.284h9.316c.453 0 .884-.057 1.292-.17.43-.113.793-.283 1.088-.51.295-.227.533-.51.714-.85.181-.34.272-.748.272-1.224 0-.884-.295-1.575-.884-2.074-.567-.499-1.28-.748-2.142-.748H8.738c-1.156 0-2.21-.125-3.162-.374s-1.757-.646-2.414-1.19c-.657-.544-1.167-1.247-1.53-2.108s-.544-1.893-.544-3.094c0-.839.147-1.655.442-2.448.295-.793.703-1.485 1.224-2.074.521-.612 1.156-1.099 1.904-1.462s1.575-.544 2.482-.544h9.554v4.522H8.908c-.453 0-.873.034-1.258.102-.385.045-.725.147-1.02.306-.295.136-.521.351-.68.646-.159.295-.238.691-.238 1.19 0 .567.193 1.054.578 1.462.385.385.907.578 1.564.578h4.182zm17.272.918c-.59 0-1.076.079-1.462.238-.362.136-.646.329-.85.578-.204.249-.351.555-.442.918-.068.34-.102.714-.102 1.122V130h-3.808v-23.154h3.808v6.222c.34-.113.692-.204 1.054-.272.386-.068.794-.102 1.224-.102h2.04c.998 0 1.87.17 2.618.51.77.34 1.406.793 1.904 1.36.522.544.907 1.179 1.156 1.904.25.703.374 1.417.374 2.142V130H32.98v-10.574c0-.408-.034-.782-.102-1.122-.068-.363-.215-.669-.442-.918-.204-.249-.487-.442-.85-.578-.362-.159-.838-.238-1.428-.238h-.85zm18.773-3.876c.997 0 1.881.159 2.652.476.793.295 1.462.714 2.006 1.258.567.544.997 1.201 1.292 1.972.295.771.442 1.643.442 2.618v4.658c0 .952-.147 1.825-.442 2.618-.295.771-.725 1.439-1.292 2.006-.544.544-1.213.963-2.006 1.258-.77.295-1.655.442-2.652.442h-1.394c-.975 0-1.859-.147-2.652-.442-.793-.295-1.473-.714-2.04-1.258-.544-.567-.963-1.235-1.258-2.006-.272-.793-.408-1.666-.408-2.618v-4.658c0-.975.136-1.847.408-2.618.295-.771.714-1.428 1.258-1.972.567-.544 1.247-.963 2.04-1.258.793-.317 1.677-.476 2.652-.476h1.394zm-1.394 3.91c-.703 0-1.303.238-1.802.714-.476.453-.714 1.054-.714 1.802v4.42c0 .748.238 1.36.714 1.836.499.476 1.1.714 1.802.714h1.394c.725 0 1.315-.238 1.768-.714.476-.476.714-1.088.714-1.836v-4.42c0-.748-.238-1.349-.714-1.802-.453-.476-1.043-.714-1.768-.714h-1.394zm19.094-3.91c.997 0 1.881.159 2.652.476.793.295 1.462.714 2.006 1.258.567.544.997 1.201 1.292 1.972.295.771.442 1.643.442 2.618v4.658c0 .952-.147 1.825-.442 2.618-.295.771-.725 1.439-1.292 2.006-.544.544-1.213.963-2.006 1.258-.77.295-1.655.442-2.652.442h-1.088c-.997 0-1.904-.159-2.72-.476v6.392h-3.944v-23.222h7.752zm-3.808 3.91v6.936c0 .748.227 1.36.68 1.836.453.476 1.043.714 1.768.714h1.36c.725 0 1.326-.238 1.802-.714s.714-1.088.714-1.836v-4.42c0-.748-.238-1.349-.714-1.802-.476-.476-1.077-.714-1.802-.714h-3.808zM79.977 130h-4.012v-17.306h4.012V130zm0-19.176h-4.012v-3.978h4.012v3.978zm3.47 1.87h3.196v-5.848h4.012v5.848h3.196v3.91h-3.196V130h-4.012v-13.396h-3.196v-3.91z"/>
    <path fill="url(#paint0_linear)" fill-rule="evenodd" d="M13.66 36.662C16.06 27.998 23.945 22 32.935 22h29.571c8.99 0 16.876 5.998 19.275 14.662l6.923 25C92.232 74.402 82.649 87 69.429 87H26.012C12.792 87 3.209 74.403 6.737 61.662l6.923-25zM40.72 36c0 1.657-1.343 3-3 3-1.656 0-3-1.343-3-3s1.344-3 3-3c1.657 0 3 1.343 3 3zm14 3c1.657 0 3-1.343 3-3s-1.343-3-3-3c-1.656 0-3 1.343-3 3s1.344 3 3 3z" clip-rule="evenodd"/>
    <path fill="url(#paint1_linear)" fill-rule="evenodd" d="M63.72 34.5v-16c0-9.113-7.387-16.5-16.5-16.5-9.112 0-16.5 7.387-16.5 16.5v16c0 9.113 7.388 16.5 16.5 16.5 9.113 0 16.5-7.387 16.5-16.5zM47.22 0c-10.217 0-18.5 8.283-18.5 18.5v16c0 10.217 8.283 18.5 18.5 18.5 10.218 0 18.5-8.283 18.5-18.5v-16C65.72 8.283 57.438 0 47.22 0z" clip-rule="evenodd"/>
    <defs>
        <linearGradient id="paint0_linear" x1="47.72" x2="47.72" y1="22" y2="87" gradientUnits="userSpaceOnUse">
            <stop stop-color="#EE3168"/>
            <stop offset="1" stop-color="#C1236F"/>
        </linearGradient>
        <linearGradient id="paint1_linear" x1="47.22" x2="47.22" y1="0" y2="53" gradientUnits="userSpaceOnUse">
            <stop stop-color="#C1236F"/>
            <stop offset="1" stop-color="#EE3168"/>
        </linearGradient>
    </defs>
</svg>
